<?xml version="1.0" standalone="no"?>
<!DOCTYPE svg PUBLIC "-//W3C//DTD SVG 20010904//EN"
 "http://www.w3.org/TR/2001/REC-SVG-20010904/DTD/svg10.dtd">
<svg version="1.0" xmlns="http://www.w3.org/2000/svg"
 width="500.000000pt" height="500.000000pt" viewBox="0 0 500.000000 500.000000"
 preserveAspectRatio="xMidYMid meet">

<g transform="translate(0.000000,500.000000) scale(0.100000,-0.100000)"
fill="#000000" stroke="none">
<path d="M2042 4850 c-127 -38 -181 -73 -212 -136 -23 -49 -32 -56 -144 -129
l-28 -19 32 58 c42 73 85 220 63 212 -35 -14 -167 -113 -200 -150 -56 -64 -86
-137 -81 -199 l3 -52 -78 -74 -77 -74 20 45 c27 62 41 170 32 258 l-7 75 -71
-92 c-107 -137 -119 -167 -119 -290 0 -111 10 -137 42 -112 17 13 17 13 0 -11
-9 -14 -40 -62 -69 -107 -28 -46 -52 -83 -54 -83 -2 0 -3 39 -3 88 0 71 -6
106 -34 196 l-34 109 -37 -111 c-49 -145 -66 -246 -55 -309 9 -49 56 -153 69
-153 8 0 -52 -189 -60 -189 -3 -1 -16 33 -29 74 -13 42 -46 110 -77 157 -30
46 -55 88 -57 93 -12 32 -18 -23 -20 -181 -2 -152 1 -187 16 -232 21 -59 56
-106 96 -126 l26 -14 -9 -116 -9 -115 -44 71 c-61 99 -94 139 -156 187 -30 22
-56 41 -59 41 -7 0 48 -260 66 -310 35 -94 100 -171 181 -213 28 -14 32 -23
48 -104 9 -48 20 -99 24 -113 5 -21 0 -18 -38 20 -38 39 -231 175 -297 209
-38 20 125 -293 189 -363 51 -56 141 -110 204 -122 29 -5 37 -14 58 -62 14
-32 40 -82 58 -112 30 -51 30 -53 8 -37 -57 40 -149 87 -209 106 -158 51 -194
61 -199 56 -2 -3 9 -20 25 -38 17 -17 54 -61 82 -97 57 -72 124 -133 197 -179
56 -35 179 -66 225 -56 30 7 38 1 139 -99 60 -58 106 -106 104 -106 -2 0 -29
13 -61 29 -31 15 -77 31 -102 35 -95 15 -193 26 -283 31 l-92 6 25 -20 c72
-59 224 -155 290 -183 101 -42 237 -51 318 -20 l52 20 73 -43 72 -44 65 14
c36 8 80 15 98 15 30 0 33 2 27 23 -4 12 -19 40 -33 62 -27 42 -270 305 -282
305 -23 0 46 -235 90 -303 35 -56 32 -55 -83 21 l-67 45 5 46 c8 62 -25 187
-72 270 -20 36 -58 106 -84 155 l-47 90 -6 -105 c-6 -96 3 -220 20 -278 5 -17
-4 -11 -38 25 -99 109 -99 109 -80 152 29 66 23 241 -16 398 -18 72 -32 144
-32 160 -1 81 -58 -84 -81 -236 -9 -54 -9 -92 -1 -135 5 -33 8 -62 6 -64 -5
-5 -114 220 -114 235 0 7 16 35 35 64 19 28 41 74 49 100 21 71 49 440 33 440
-11 0 -81 -111 -123 -195 -20 -41 -40 -101 -47 -145 -13 -74 -13 -75 -21 -35
-4 22 -13 80 -20 128 l-13 88 28 31 c79 84 128 176 184 350 31 94 54 172 52
174 -6 6 -175 -169 -201 -207 -14 -20 -34 -63 -46 -95 l-20 -59 5 95 c8 156
11 164 66 200 61 39 132 119 211 235 34 50 77 109 96 133 19 24 32 46 29 49
-7 6 -119 -55 -198 -108 -31 -21 -73 -57 -93 -81 -19 -24 -36 -38 -36 -31 0
26 74 185 89 190 80 25 192 96 296 187 39 33 86 73 105 88 19 15 31 30 27 34
-21 21 -217 -48 -306 -108 -40 -26 -38 -20 32 75 45 62 52 67 86 67 63 0 185
36 303 91 146 67 155 75 94 84 -59 9 -198 -2 -251 -20 -21 -8 -41 -13 -43 -11
-1 2 26 26 61 54 61 49 65 50 103 42 21 -5 64 -10 94 -10 75 0 370 33 370 41
0 9 -83 41 -150 59 -25 7 -84 12 -132 13 -49 0 -88 1 -88 2 0 2 24 21 53 43
39 29 67 41 105 47 86 12 194 96 275 215 33 48 28 49 -101 10z"/>
<path d="M2826 4843 c99 -134 172 -197 243 -209 31 -5 171 -88 171 -101 0 -2
-19 -1 -42 2 -70 10 -325 -53 -301 -75 10 -10 276 -40 351 -40 31 1 76 4 98 9
40 8 44 6 95 -41 36 -32 47 -47 32 -43 -108 29 -293 33 -293 6 0 -9 223 -110
291 -132 31 -10 83 -21 115 -24 58 -7 60 -8 107 -69 26 -35 47 -65 47 -68 0
-3 -24 7 -52 22 -93 50 -272 100 -254 71 13 -21 230 -198 290 -236 32 -21 78
-46 101 -56 39 -17 45 -25 74 -98 38 -97 38 -105 3 -65 -15 18 -49 49 -76 69
-50 37 -177 105 -196 105 -6 0 14 -30 43 -67 30 -38 70 -95 88 -128 33 -59
132 -168 197 -216 37 -26 44 -52 56 -184 l6 -70 -22 55 c-17 42 -48 82 -130
167 -59 61 -108 108 -108 105 0 -4 13 -50 29 -102 60 -199 110 -305 182 -392
44 -52 47 -73 28 -188 -12 -68 -29 -86 -29 -30 0 43 -148 320 -170 320 -7 0
-3 -84 10 -266 11 -140 32 -221 75 -286 14 -21 25 -43 25 -49 0 -15 -80 -198
-89 -204 -4 -2 -8 37 -8 88 -1 106 -34 265 -63 299 l-19 23 -1 -23 c0 -13 -16
-95 -35 -182 -39 -176 -44 -267 -19 -349 15 -52 15 -53 -9 -84 -14 -18 -41
-50 -62 -72 -32 -35 -36 -37 -30 -15 11 42 18 255 11 304 l-7 47 -41 -78 c-22
-43 -60 -110 -85 -149 -47 -78 -73 -168 -73 -265 0 -54 -1 -56 -42 -86 -24
-16 -63 -43 -87 -58 l-44 -27 26 44 c14 25 35 68 46 95 21 54 53 194 46 202
-7 7 -191 -177 -246 -246 -43 -54 -86 -130 -77 -138 2 -1 40 -10 85 -19 81
-16 83 -16 125 5 24 12 73 41 110 65 45 29 64 37 56 24 -19 -30 6 -48 82 -58
78 -11 115 -7 203 20 95 29 358 192 339 210 -10 10 -244 -9 -335 -27 -79 -16
-152 -45 -217 -86 l-35 -21 35 27 c19 15 83 76 142 135 59 60 109 103 111 96
6 -17 104 -12 172 9 75 24 203 119 262 195 24 30 61 76 83 102 22 25 40 48 40
51 0 2 -48 -9 -107 -25 -112 -30 -243 -93 -315 -150 l-40 -32 31 55 c18 30 49
88 70 129 34 69 40 75 69 77 48 2 135 48 196 103 44 41 67 76 135 211 45 88
80 163 77 166 -5 5 -224 -135 -271 -174 -16 -14 -45 -44 -64 -67 -19 -23 -31
-32 -28 -21 14 47 36 154 42 198 5 36 10 47 24 47 27 0 107 57 141 100 50 63
80 143 110 292 16 78 28 143 26 145 -15 15 -216 -210 -249 -278 l-24 -51 -7
103 c-4 56 -10 115 -13 131 -4 23 -3 27 10 22 9 -3 31 9 56 31 47 43 79 119
88 210 6 70 -6 315 -16 315 -8 0 -104 -163 -136 -231 -18 -39 -25 -72 -26
-119 l0 -65 -23 80 c-13 44 -35 111 -49 150 -14 38 -24 71 -22 74 3 2 5 -1 5
-7 0 -7 6 -12 14 -12 21 0 52 55 72 128 16 59 16 67 1 140 -22 101 -78 272
-88 267 -4 -3 -19 -35 -35 -72 -26 -63 -28 -78 -29 -200 0 -73 -1 -133 -2
-133 -2 0 -12 19 -24 43 -62 122 -240 346 -339 427 -38 32 -42 38 -31 57 18
35 13 85 -15 141 -28 57 -155 182 -224 220 l-42 24 7 -34 c18 -83 48 -160 80
-207 20 -28 33 -51 31 -51 -2 0 -40 20 -84 45 -67 38 -80 50 -86 76 -15 78
-90 137 -226 179 -131 41 -140 40 -104 -7z"/>
<path d="M3603 4523 c3 -134 5 -144 35 -205 17 -34 54 -85 81 -113 65 -63 75
-55 79 63 3 70 0 98 -17 142 -20 52 -82 143 -151 220 l-31 35 4 -142z"/>
<path d="M1984 1794 c4 -16 24 -54 45 -84 31 -44 47 -58 90 -75 112 -43 176
-130 169 -230 -1 -30 -1 -55 2 -55 11 0 56 34 97 73 39 37 46 40 98 39 51 0
59 -3 100 -41 43 -40 63 -52 50 -31 -13 20 8 101 37 146 36 53 109 99 186 115
48 10 56 15 87 62 39 59 57 114 34 104 -8 -3 -62 -26 -121 -50 -59 -25 -122
-53 -140 -64 -43 -25 -117 -117 -125 -154 l-5 -29 -98 0 -97 0 -19 43 c-25 55
-88 123 -138 149 -22 11 -82 38 -135 60 -53 21 -102 42 -110 45 -11 5 -12 0
-7 -23z"/>
<path d="M3310 1577 c3 -3 57 -26 119 -50 113 -45 114 -45 158 -30 25 9 41 19
36 23 -4 4 -64 18 -133 29 -69 12 -138 24 -155 27 -16 4 -28 4 -25 1z"/>
<path d="M1445 1542 l-129 -25 44 -13 c43 -13 49 -12 135 22 132 52 133 52
-50 16z"/>
<path d="M1842 1545 c-57 -13 -274 -96 -269 -101 2 -2 32 -8 66 -12 56 -8 72
-6 145 19 46 16 102 29 130 29 37 0 57 6 83 26 l33 25 60 -17 c33 -9 63 -14
67 -11 3 4 -18 18 -48 32 -44 20 -69 25 -134 24 -44 0 -104 -6 -133 -14z"/>
<path d="M2825 1541 c-22 -10 -49 -26 -60 -35 -29 -22 -7 -21 99 8 l89 24 22
-27 c17 -19 39 -29 88 -38 35 -7 86 -22 113 -34 42 -17 60 -20 123 -14 40 4
69 10 65 15 -14 12 -216 88 -280 105 -83 21 -209 19 -259 -4z"/>
<path d="M2704 1424 c-14 -29 -24 -60 -21 -68 9 -22 159 -66 257 -76 164 -17
241 -20 235 -11 -10 17 -287 151 -311 151 -12 0 -26 -4 -29 -10 -12 -20 -26
-10 -15 11 14 25 16 22 -42 42 l-47 16 -27 -55z"/>
<path d="M2135 1442 c-25 -12 -35 -21 -27 -26 7 -4 12 -11 12 -17 0 -5 -9 -4
-19 3 -16 10 -36 4 -123 -36 -56 -26 -121 -58 -143 -72 l-40 -24 80 0 c103 0
228 16 302 38 55 17 58 19 61 52 3 38 -29 100 -50 100 -7 0 -31 -9 -53 -18z"/>
<path d="M1588 583 c12 -2 30 -2 40 0 9 3 -1 5 -23 4 -22 0 -30 -2 -17 -4z"/>
<path d="M1657 572 c2 -3 -7 -12 -19 -19 -23 -13 -22 -13 5 -7 26 6 27 4 27
-31 0 -59 -50 -128 -104 -144 -23 -7 -25 -9 -10 -10 30 -1 84 38 107 77 11 19
20 52 20 74 l0 40 41 -5 c22 -2 82 -12 133 -21 62 -11 103 -14 125 -8 32 8 45
33 20 38 -7 1 -8 0 -2 -3 5 -2 10 -9 10 -15 0 -10 -103 -7 -150 5 -75 20 -136
28 -160 24 -15 -3 -32 -2 -37 2 -5 5 -8 6 -6 3z"/>
<path d="M1948 563 c6 -2 18 -2 25 0 6 3 1 5 -13 5 -14 0 -19 -2 -12 -5z"/>
<path d="M1554 498 l-19 -23 23 19 c21 18 27 26 19 26 -2 0 -12 -10 -23 -22z"/>
<path d="M1762 482 c-22 -22 -56 -64 -76 -95 -43 -64 -96 -115 -129 -121 -12
-3 -31 -7 -42 -9 -11 -3 -4 -5 15 -6 22 0 54 10 87 29 42 24 60 44 93 100 23
39 55 86 72 105 41 47 27 44 -20 -3z"/>
<path d="M3003 466 c-21 -24 -62 -88 -92 -142 -30 -54 -70 -117 -90 -138 l-36
-39 34 23 c41 28 81 83 138 192 24 45 55 97 69 115 36 47 23 41 -23 -11z"/>
<path d="M3065 484 c-8 -13 -15 -26 -15 -29 0 -3 -21 -41 -46 -85 -33 -56 -44
-85 -39 -97 8 -17 8 -17 13 1 2 10 28 58 57 105 76 126 77 128 60 128 -8 0
-22 -11 -30 -23z"/>
<path d="M1487 448 c-44 -26 -82 -95 -72 -130 9 -28 34 -58 49 -58 6 0 0 7
-12 16 -40 28 -23 121 30 158 27 19 41 21 33 4 -4 -7 0 -5 8 5 17 20 76 23 97
5 12 -11 12 -10 1 5 -19 24 -87 22 -134 -5z"/>
<path d="M1762 428 c-5 -7 -13 -24 -17 -37 -11 -35 11 -18 23 19 12 32 10 37
-6 18z"/>
<path d="M2802 428 c-30 -37 -72 -122 -72 -146 0 -21 11 -8 50 62 28 49 50 91
50 93 0 8 -18 2 -28 -9z"/>
<path d="M1538 419 c-10 -5 -18 -7 -18 -3 0 5 -11 -7 -25 -26 -14 -19 -25 -42
-25 -52 0 -23 35 -58 58 -57 11 0 7 4 -10 10 -54 20 -43 81 20 117 21 12 33
22 27 21 -5 0 -18 -4 -27 -10z"/>
<path d="M1824 381 c3 -4 -10 -34 -29 -65 -23 -38 -29 -56 -20 -56 8 0 26 20
40 43 26 45 33 87 14 87 -5 0 -8 -4 -5 -9z"/>
<path d="M1873 378 c-25 -33 -25 -40 1 -23 26 17 35 35 17 35 -5 0 -13 -6 -18
-12z"/>
<path d="M1965 378 c-39 -21 -75 -62 -75 -84 0 -35 17 -38 23 -5 4 16 22 46
42 65 20 20 34 36 33 36 -2 0 -12 -6 -23 -12z"/>
<path d="M2006 351 c-25 -38 -29 -53 -27 -81 1 -13 71 101 71 115 0 17 -23 -1
-44 -34z"/>
<path d="M2123 370 c-47 -28 -68 -65 -55 -93 l11 -22 0 23 c1 12 20 43 42 67
47 51 47 53 2 25z"/>
<path d="M2158 314 c-24 -42 -62 -104 -84 -140 -38 -58 -34 -73 8 -27 34 37
146 243 133 243 -7 0 -33 -34 -57 -76z"/>
<path d="M2273 324 c-22 -44 -28 -64 -20 -64 18 0 73 108 61 119 -5 4 -23 -20
-41 -55z"/>
<path d="M2345 374 c-9 -9 -13 -19 -10 -22 3 -3 15 4 28 16 12 12 16 22 10 22
-6 0 -19 -7 -28 -16z"/>
<path d="M2435 378 c-44 -24 -65 -52 -65 -85 0 -18 5 -33 11 -33 5 0 7 4 4 10
-9 14 20 64 55 94 33 27 30 34 -5 14z"/>
<path d="M2476 346 c-14 -25 -26 -51 -26 -60 0 -34 17 -19 47 41 37 74 20 89
-21 19z"/>
<path d="M2611 381 c0 -8 -14 -36 -31 -63 -33 -53 -35 -58 -20 -58 20 0 62 77
57 107 -2 15 -5 22 -6 14z"/>
<path d="M2669 336 c-14 -28 -24 -57 -21 -64 7 -20 54 67 50 94 -2 17 -8 11
-29 -30z"/>
<path d="M3115 378 c-41 -22 -65 -52 -65 -79 0 -15 5 -31 10 -34 6 -4 10 5 10
19 0 16 14 42 36 66 39 43 40 45 9 28z"/>
<path d="M3205 335 c-24 -43 -27 -57 -17 -67 9 -9 12 -9 12 1 0 8 14 36 30 63
34 55 35 58 17 58 -7 0 -26 -25 -42 -55z"/>
<path d="M3285 345 c-14 -25 -25 -54 -23 -64 2 -13 14 1 40 45 23 41 32 64 23
64 -7 0 -25 -20 -40 -45z"/>
<path d="M3360 369 c-6 -11 -10 -28 -8 -37 3 -13 8 -9 21 15 20 37 21 43 7 43
-5 0 -14 -9 -20 -21z"/>
<path d="M3480 383 c-61 -23 -95 -82 -65 -112 15 -15 16 -15 9 2 -7 20 17 62
55 94 27 24 27 26 1 16z"/>
<path d="M3520 377 c0 -8 -11 -20 -25 -27 -32 -17 -25 -24 9 -9 14 7 26 20 26
31 0 10 -2 18 -5 18 -3 0 -5 -6 -5 -13z"/>
<path d="M3590 373 c0 -10 -6 -27 -13 -38 -44 -65 -49 -75 -36 -75 29 0 82
111 60 124 -6 4 -11 -1 -11 -11z"/>
<path d="M3635 370 c-27 -30 -12 -34 15 -5 13 14 19 25 13 25 -5 0 -18 -9 -28
-20z"/>
<path d="M1599 323 l-24 -28 28 24 c25 23 32 31 24 31 -2 0 -14 -12 -28 -27z"/>
<path d="M3140 335 c-9 -11 -10 -19 -3 -26 6 -6 13 -1 21 16 13 28 2 34 -18
10z"/>
<path d="M1989 163 c-13 -16 -12 -17 4 -4 16 13 21 21 13 21 -2 0 -10 -8 -17
-17z"/>
</g>
</svg>
